<?xml version="1.0" encoding="UTF-8"?>
<svg viewBox="0 0 20 20" xmlns="http://www.w3.org/2000/svg">
<path d="m10 18.305c4.5868 0 8.3051-3.7183 8.3051-8.3051 0-4.5868-3.7183-8.3051-8.3051-8.3051-4.5868 0-8.3051 3.7183-8.3051 8.3051 0 4.5868 3.7183 8.3051 8.3051 8.3051zm0 1.6949c5.5228 0 10-4.4772 10-10 0-5.5228-4.4772-10-10-10-5.5228 0-10 4.4772-10 10 0 5.5228 4.4772 10 10 10z" clip-rule="evenodd" fill="#fff" fill-rule="evenodd"/>
<path d="M8.8983 4.82345H10.2542V10.4167H15V11.7726H8.8983V4.82345Z" clip-rule="evenodd" fill="#fff" fill-rule="evenodd"/>
</svg>
